<svg xmlns="http://www.w3.org/2000/svg" xmlns:xlink="http://www.w3.org/1999/xlink" width="522" zoomAndPan="magnify" viewBox="0 0 391.5 391.500002" height="522" preserveAspectRatio="xMidYMid meet" version="1.0"><defs><clipPath id="6a289c5217"><path d="M 201 28 L 385 28 L 385 238.945312 L 201 238.945312 Z M 201 28 " clip-rule="nonzero"/></clipPath><clipPath id="5eed077442"><path d="M 198 25 L 388 25 L 388 238.945312 L 198 238.945312 Z M 198 25 " clip-rule="nonzero"/></clipPath></defs><g clip-path="url(#6a289c5217)"><path fill="#ffffff" d="M 373.679688 56.910156 L 294.453125 28.09375 L 294.453125 36.757812 L 370.886719 64.570312 C 371.765625 64.882812 372.515625 65.320312 373.210938 65.886719 C 373.554688 66.136719 373.898438 66.453125 374.183594 66.765625 C 376.285156 68.996094 377.070312 72.324219 375.972656 75.429688 L 321.449219 225.191406 C 319.847656 229.582031 314.980469 231.84375 310.585938 230.242188 L 214.222656 195.179688 C 212.777344 194.648438 211.554688 193.765625 210.644531 192.636719 L 201.414062 192.636719 C 202.984375 197.21875 206.53125 201.050781 211.425781 202.839844 L 307.792969 237.929688 C 313.914062 240.160156 320.441406 238.59375 324.871094 234.417969 C 325.496094 233.851562 326.0625 233.222656 326.59375 232.53125 C 327.632812 231.183594 328.511719 229.675781 329.105469 227.980469 L 383.628906 78.222656 C 386.769531 69.589844 382.3125 60.046875 373.679688 56.910156 Z M 373.679688 56.910156 " fill-opacity="1" fill-rule="nonzero"/></g><g clip-path="url(#5eed077442)"><path stroke-linecap="butt" transform="matrix(0.466689, 0, 0, 0.466689, 152.160474, 0.0000109872)" fill="none" stroke-linejoin="miter" d="M 474.661222 121.944452 L 304.898174 60.197977 L 304.898174 78.762933 L 468.676577 138.358284 C 470.559857 139.027895 472.166922 139.965349 473.656806 141.179019 C 474.393378 141.714707 475.129949 142.392688 475.740969 143.062299 C 480.244101 147.841645 481.926498 154.972999 479.57449 161.627255 L 362.744166 482.529805 C 359.312412 491.937835 348.883225 496.784142 339.466825 493.352387 L 132.984001 418.222069 C 129.887051 417.083731 127.2672 415.19208 125.316959 412.773112 L 105.538333 412.773112 C 108.903127 422.591278 116.503208 430.802379 126.990985 434.635901 L 333.48218 509.82481 C 346.598179 514.604156 360.584672 511.247733 370.076403 502.30006 C 371.415625 501.086391 372.629294 499.738799 373.767632 498.257286 C 375.994088 495.36959 377.877368 492.138718 379.149628 488.50608 L 495.979952 167.611901 C 502.709539 149.113905 493.159217 128.665669 474.661222 121.944452 Z M 474.661222 121.944452 " stroke="#ffffff" stroke-width="1" stroke-opacity="1" stroke-miterlimit="4"/></g><path stroke-linecap="butt" transform="matrix(0.466689, 0, 0, 0.466689, 152.160474, 0.0000109872)" fill-opacity="1" fill="#ffffff" fill-rule="nonzero" stroke-linejoin="miter" d="M 307.852831 319.010876 C 314.917223 322.978319 323.530091 324.133398 330.99625 321.371254 C 342.630736 316.926713 348.280576 306.69841 349.494245 295.005333 C 350.029934 289.489415 349.628167 283.638692 348.347537 277.92189 C 348.012731 276.164162 347.544004 274.356214 346.999945 272.606856 C 345.451471 267.760548 343.568191 262.713358 341.484027 257.607576 C 337.91835 248.534352 333.825355 239.377425 330.653074 231.174695 C 328.301067 224.913835 326.484748 219.263995 325.815137 214.626941 C 325.748176 214.024291 325.681215 213.413271 325.605884 212.877583 C 325.605884 212.743661 325.605884 212.609738 325.547293 212.475816 C 325.480332 211.864797 325.271079 211.663913 325.145527 211.596952 C 324.936273 211.4714 324.668429 211.529991 324.199702 211.998719 C 324.13274 212.07405 324.065779 212.132641 323.931857 212.266563 C 323.655643 212.542777 323.387799 212.810622 323.052993 213.078466 C 319.562648 216.376299 314.381535 219.674131 308.329928 223.030555 C 307.18322 223.708535 306.044882 224.311185 304.889803 224.913835 L 304.889803 317.194557 C 305.701706 317.738616 306.513609 318.274304 307.384103 318.809993 C 307.518025 318.876954 307.727279 318.943915 307.852831 319.010876 Z M 307.852831 319.010876 " stroke="#ffffff" stroke-width="1" stroke-opacity="1" stroke-miterlimit="4"/><path stroke-linecap="butt" transform="matrix(0.466689, 0, 0, 0.466689, 152.160474, 0.0000109872)" fill-opacity="1" fill="#ffffff" fill-rule="nonzero" stroke-linejoin="miter" d="M 422.984018 209.111023 C 422.984018 204.164274 424.105615 198.681836 425.771272 193.157548 C 428.056318 197.736011 434.099555 200.230311 438.853791 198.439102 C 445.968404 195.76066 447.165333 187.273344 444.897027 180.033179 C 442.419468 172.131773 437.238355 162.665152 436.828218 157.442188 L 436.635705 156.93998 L 436.175348 157.207825 C 432.509229 160.940904 422.456699 164.866497 415.476008 169.327778 C 409.081226 173.412403 404.544613 180.694419 408.277693 187.298455 C 410.763623 191.734625 416.991002 193.709977 421.686647 191.667664 C 419.409971 196.965959 416.748268 201.895967 413.559247 205.687638 Z M 422.984018 209.111023 " stroke="#ffffff" stroke-width="1" stroke-opacity="1" stroke-miterlimit="4"/><path stroke-linecap="butt" transform="matrix(0.466689, 0, 0, 0.466689, 152.160474, 0.0000109872)" fill-opacity="1" fill="#ffffff" fill-rule="nonzero" stroke-linejoin="miter" d="M 304.881433 377.116343 L 304.881433 323.706521 C 304.881433 323.714891 304.889803 323.723261 304.898174 323.723261 L 304.898174 317.194557 C 304.889803 317.194557 304.881433 317.186187 304.881433 317.177817 L 304.881433 219.054741 C 304.881433 219.063111 304.889803 219.063111 304.898174 219.071482 L 304.898174 211.739245 C 304.889803 211.739245 304.881433 211.747615 304.881433 211.747615 L 304.881433 35.640005 C 304.864693 15.945081 288.936329 0.00834659 269.241405 -0.000023543 L 49.500289 -0.000023543 C 29.813735 -0.000023543 13.86026 15.953451 13.86026 35.640005 L 13.86026 377.116343 C 13.86026 396.794527 29.813735 412.748001 49.500289 412.748001 L 269.241405 412.748001 C 288.936329 412.748001 304.864693 396.802897 304.881433 377.116343 Z M 31.353839 377.116343 L 31.353839 35.640005 C 31.37895 25.612585 39.481239 17.501926 49.500289 17.485185 L 269.241405 17.485185 C 279.268825 17.501926 287.371114 25.620955 287.396224 35.640005 L 287.396224 377.116343 C 287.371114 387.135393 279.268825 395.246052 269.241405 395.262792 L 49.500289 395.262792 C 39.481239 395.246052 31.37895 387.143763 31.353839 377.116343 Z M 31.353839 377.116343 " stroke="#ffffff" stroke-width="1" stroke-opacity="1" stroke-miterlimit="4"/><path stroke-linecap="butt" transform="matrix(0.466689, 0, 0, 0.466689, 152.160474, 0.0000109872)" fill-opacity="1" fill="#ffffff" fill-rule="nonzero" stroke-linejoin="miter" d="M 189.633065 186.38611 C 187.883707 186.38611 186.19294 186.520032 184.518913 186.796247 C 188.578428 181.489582 190.997396 174.860436 190.997396 167.662121 C 190.997396 150.235503 176.81002 136.048127 159.383402 136.048127 C 141.948414 136.048127 127.761038 150.235503 127.761038 167.662121 C 127.761038 174.860436 130.180006 181.489582 134.239521 186.796247 C 132.565494 186.520032 130.857987 186.38611 129.125369 186.38611 C 111.682011 186.38611 97.503005 200.573486 97.503005 218.000104 C 97.503005 235.435093 111.682011 249.622469 129.125369 249.622469 C 138.876575 249.622469 147.598254 245.186298 153.390386 238.230717 C 152.402711 252.133509 150.234846 265.400171 146.125111 276.691481 L 172.624953 276.691481 C 168.523588 265.400171 166.355723 252.133509 165.359677 238.230717 C 171.16018 245.186298 179.881859 249.622469 189.633065 249.622469 C 207.068053 249.622469 221.238689 235.435093 221.238689 218.000104 C 221.238689 200.573486 207.068053 186.38611 189.633065 186.38611 Z M 189.633065 186.38611 " stroke="#ffffff" stroke-width="1" stroke-opacity="1" stroke-miterlimit="4"/><path stroke-linecap="butt" transform="matrix(0.466689, 0, 0, 0.466689, 152.160474, 0.0000109872)" fill-opacity="1" fill="#ffffff" fill-rule="nonzero" stroke-linejoin="miter" d="M 254.643892 339.584664 C 253.89895 339.584664 253.179118 339.651625 252.467657 339.760437 C 254.200275 337.483761 255.254912 334.629545 255.254912 331.524226 C 255.254912 324.024586 249.144714 317.914388 241.645074 317.914388 C 234.128695 317.914388 228.018497 324.024586 228.018497 331.524226 C 228.018497 334.629545 229.073134 337.483761 230.805752 339.760437 C 230.09429 339.643255 229.357718 339.584664 228.612777 339.584664 C 221.096397 339.584664 215.002939 345.694862 215.002939 353.186131 C 215.002939 360.702511 221.096397 366.804338 228.612777 366.804338 C 232.797843 366.804338 236.556033 364.895948 239.050333 361.90781 C 238.631826 367.892456 237.686001 373.592517 235.928273 378.472305 L 247.345135 378.472305 C 245.570667 373.592517 244.633212 367.892456 244.206335 361.90781 C 246.709005 364.887578 250.467195 366.804338 254.643892 366.804338 C 262.160272 366.804338 268.253729 360.702511 268.253729 353.186131 C 268.253729 345.694862 262.160272 339.584664 254.643892 339.584664 Z M 254.643892 339.584664 " stroke="#ffffff" stroke-width="1" stroke-opacity="1" stroke-miterlimit="4"/><path stroke-linecap="butt" transform="matrix(0.466689, 0, 0, 0.466689, 152.160474, 0.0000109872)" fill-opacity="1" fill="#ffffff" fill-rule="nonzero" stroke-linejoin="miter" d="M 103.755495 77.741777 C 103.755495 70.233767 97.653667 64.13194 90.137287 64.13194 C 89.400716 64.13194 88.664144 64.198901 87.944312 64.299342 C 89.6853 62.031036 90.723197 59.16845 90.723197 56.071501 C 90.723197 48.571861 84.629739 42.461664 77.1301 42.461664 C 69.61372 42.461664 63.511893 48.571861 63.511893 56.071501 C 63.511893 59.16845 64.549789 62.031036 66.299147 64.299342 C 65.579316 64.198901 64.851114 64.13194 64.097802 64.13194 C 56.598162 64.13194 50.487965 70.233767 50.487965 77.741777 C 50.487965 85.249787 56.598162 91.351614 64.097802 91.351614 C 68.291239 91.351614 72.049429 89.434853 74.543729 86.446716 C 74.108482 92.431361 73.179397 98.131422 71.413299 103.01121 L 82.821791 103.01121 C 81.055692 98.131422 80.126608 92.431361 79.691361 86.446716 C 82.18566 89.434853 85.94385 91.351614 90.137287 91.351614 C 97.653667 91.359984 103.755495 85.249787 103.755495 77.741777 Z M 103.755495 77.741777 " stroke="#ffffff" stroke-width="1" stroke-opacity="1" stroke-miterlimit="4"/><path stroke-linecap="round" transform="matrix(6.195212, 0, 0, 6.195213, -40.968483, 106.229696)" fill="none" stroke-linejoin="round" d="M 36.117188 24.076175 C 37.762864 22.720542 38.943211 20.681417 37.639281 17.786666 C 34.818302 11.525531 25.709705 16.35537 18.347669 17.786666 C 10.224587 19.366137 5.768651 22.525078 8.306523 25.796884 C 9.290145 27.064243 10.747294 27.781153 12.163458 28.18406 " stroke="#ffffff" stroke-width="1" stroke-opacity="1" stroke-miterlimit="4"/><path stroke-linecap="round" transform="matrix(6.195212, 0, 0, 6.195213, -40.968483, 106.229696)" fill="none" stroke-linejoin="round" d="M 31.039552 14.721043 L 31.039552 7.464306 C 29.064741 4.1925 23.794794 3.63007 16.881063 5.771971 C 10.506432 7.746151 8.532252 11.694513 8.532252 11.694513 C 11.804057 17.730549 11.798383 19.735626 11.798383 19.735626 " stroke="#ffffff" stroke-width="1" stroke-opacity="1" stroke-miterlimit="4"/><path stroke-linecap="round" transform="matrix(6.195212, 0, 0, 6.195213, -40.968483, 106.229696)" fill="none" stroke-linejoin="round" d="M 37.921126 28.688482 C 34.987914 17.591203 28.276582 19.219855 21.149102 21.002355 C 13.703206 22.863671 10.788909 26.191594 12.537361 33.355644 " stroke="#ffffff" stroke-width="1" stroke-opacity="1" stroke-miterlimit="4"/><path stroke-linecap="round" transform="matrix(6.195212, 0, 0, 6.195213, -40.968483, 106.229696)" fill="none" stroke-linejoin="round" d="M 37.093875 29.764161 C 37.858074 28.454556 40.779306 28.102091 40.365681 31.073135 C 40.051678 33.32664 38.657582 33.477966 37.921126 32.959042 C 37.582533 35.21696 33.765952 45.144611 22.108134 43.264379 C 18.664194 42.708884 16.625069 41.290198 15.461115 39.566967 " stroke="#ffffff" stroke-width="1" stroke-opacity="1" stroke-miterlimit="4"/><path stroke-linecap="round" transform="matrix(6.195212, 0, 0, 6.195213, -40.968483, 106.229696)" fill="none" stroke-linejoin="round" d="M 18.196973 32.716289 C 15.376625 32.415528 14.887966 35.385941 13.778238 35.34874 C 12.669141 35.310909 12.499529 34.596521 12.044919 32.960934 C 12.044919 32.960934 10.657128 35.555553 11.841889 37.793294 C 13.026019 40.030405 18.272006 38.940223 20.002173 36.344973 C 22.352148 37.981191 30.005487 40.537979 30.813823 35.498806 C 31.015592 34.242165 30.828956 33.157658 30.434876 32.237089 C 30.098805 33.882134 29.064741 35.047979 27.448069 34.596521 C 25.830767 34.145694 25.454972 32.622341 22.371064 32.377696 " stroke="#ffffff" stroke-width="1" stroke-opacity="1" stroke-miterlimit="4"/><path stroke-linecap="round" transform="matrix(6.195212, 0, 0, 6.195213, -40.968483, 106.229696)" fill="none" stroke-linejoin="round" d="M 18.065193 30.685361 C 17.783347 31.776173 18.316143 34.165871 20.246187 33.844302 C 22.277115 33.505709 22.860353 32.020187 21.976354 30.347399 " stroke="#ffffff" stroke-width="1" stroke-opacity="1" stroke-miterlimit="4"/><path stroke-linecap="round" transform="matrix(6.195212, 0, 0, 6.195213, -40.968483, 106.229696)" fill="none" stroke-linejoin="round" d="M 25.90643 22.581195 C 27.466985 22.224317 29.741927 22.750807 30.531978 24.856768 " stroke="#ffffff" stroke-width="1" stroke-opacity="1" stroke-miterlimit="4"/><path stroke-linecap="round" transform="matrix(6.195212, 0, 0, 6.195213, -40.968483, 106.229696)" fill="none" stroke-linejoin="round" d="M 36.975966 25.835977 L 35.156895 26.436238 " stroke="#ffffff" stroke-width="1" stroke-opacity="1" stroke-miterlimit="4"/><path stroke-linecap="round" transform="matrix(6.195212, 0, 0, 6.195213, -40.968483, 106.229696)" fill="none" stroke-linejoin="round" d="M 35.156895 28.18406 L 37.559834 27.445712 " stroke="#ffffff" stroke-width="1" stroke-opacity="1" stroke-miterlimit="4"/><path stroke-linecap="round" transform="matrix(6.195212, 0, 0, 6.195213, -40.968483, 106.229696)" fill="none" stroke-linejoin="round" d="M 17.539964 38.299608 C 18.103025 39.804676 22.029318 42.896781 24.44739 38.172872 " stroke="#ffffff" stroke-width="1" stroke-opacity="1" stroke-miterlimit="4"/><path stroke-linecap="round" transform="matrix(6.195212, 0, 0, 6.195213, -40.968483, 106.229696)" fill="none" stroke-linejoin="round" d="M 15.611811 23.177043 C 17.33189 23.107685 18.140856 24.066717 18.140856 24.066717 " stroke="#ffffff" stroke-width="1" stroke-opacity="1" stroke-miterlimit="4"/><path stroke-linecap="round" transform="matrix(6.195212, 0, 0, 6.195213, -40.968483, 106.229696)" fill="none" stroke-linejoin="round" d="M 17.207045 27.815201 C 17.207045 27.932479 17.197588 28.048496 17.179302 28.163883 C 17.160386 28.279269 17.132643 28.390873 17.096073 28.499323 C 17.059502 28.607774 17.014735 28.71055 16.96177 28.808282 C 16.908806 28.906013 16.848906 28.996179 16.78144 29.079408 C 16.713343 29.162007 16.640201 29.23641 16.560755 29.301354 C 16.481309 29.366929 16.397448 29.421785 16.309175 29.467183 C 16.220901 29.51195 16.130105 29.545999 16.036787 29.568698 C 15.942838 29.591396 15.848259 29.602746 15.75305 29.602746 C 15.65784 29.602746 15.563261 29.591396 15.469312 29.568698 C 15.375994 29.545999 15.284568 29.51195 15.196294 29.467183 C 15.108651 29.421785 15.024791 29.366929 14.945344 29.301354 C 14.865898 29.23641 14.792126 29.162007 14.72466 29.079408 C 14.657193 28.996179 14.597293 28.906013 14.544329 28.808282 C 14.490734 28.71055 14.445967 28.607774 14.409396 28.499323 C 14.373456 28.390873 14.345713 28.279269 14.326797 28.163883 C 14.308512 28.048496 14.299054 27.932479 14.299054 27.815201 C 14.299054 27.697293 14.308512 27.581276 14.326797 27.465889 C 14.345713 27.351133 14.373456 27.23953 14.409396 27.130449 C 14.445967 27.021998 14.490734 26.919222 14.544329 26.821491 C 14.597293 26.723759 14.657193 26.633593 14.72466 26.550994 C 14.792126 26.467765 14.865898 26.393363 14.945344 26.328418 C 15.024791 26.262843 15.108651 26.207988 15.196294 26.16322 C 15.284568 26.118453 15.375994 26.084404 15.469312 26.061075 C 15.563261 26.038376 15.65784 26.027026 15.75305 26.027026 C 15.848259 26.027026 15.942838 26.038376 16.036787 26.061075 C 16.130105 26.084404 16.221531 26.118453 16.309175 26.16322 C 16.397448 26.207988 16.481309 26.262843 16.560755 26.328418 C 16.640201 26.393363 16.713343 26.467765 16.78144 26.550994 C 16.848906 26.633593 16.908806 26.723759 16.96177 26.821491 C 17.014735 26.919222 17.059502 27.021998 17.096073 27.130449 C 17.132643 27.23953 17.160386 27.351133 17.179302 27.465889 C 17.197588 27.581276 17.207045 27.697293 17.207045 27.815201 Z M 17.207045 27.815201 " stroke="#ffffff" stroke-width="1" stroke-opacity="1" stroke-miterlimit="4"/><path stroke-linecap="round" transform="matrix(6.195212, 0, 0, 6.195213, -40.968483, 106.229696)" fill="none" stroke-linejoin="round" d="M 28.231184 27.267904 C 28.231184 27.385182 28.221726 27.501829 28.20281 27.616585 C 28.183894 27.731972 28.156782 27.843575 28.11958 27.952026 C 28.08301 28.060476 28.038242 28.163883 27.984648 28.261615 C 27.931683 28.358716 27.871153 28.449512 27.803056 28.532111 C 27.734959 28.61534 27.661187 28.689743 27.581741 28.754687 C 27.501664 28.819631 27.417804 28.875118 27.328899 28.919885 C 27.240625 28.964652 27.149199 28.998701 27.05525 29.0214 C 26.960671 29.044729 26.866092 29.056079 26.770252 29.056079 C 26.673781 29.056079 26.579202 29.044729 26.485254 29.0214 C 26.390675 28.998701 26.299248 28.964652 26.210974 28.919885 C 26.12207 28.875118 26.03821 28.819631 25.958133 28.754687 C 25.878687 28.689743 25.804915 28.61534 25.736818 28.532111 C 25.669352 28.449512 25.608821 28.358716 25.555226 28.261615 C 25.501631 28.163883 25.456864 28.060476 25.420293 27.952026 C 25.383723 27.843575 25.35598 27.731972 25.337064 27.616585 C 25.318148 27.501829 25.30869 27.385182 25.30869 27.267904 C 25.30869 27.150626 25.318148 27.034609 25.337064 26.919222 C 25.35598 26.803836 25.383723 26.692232 25.420293 26.583782 C 25.456864 26.475331 25.501631 26.372555 25.555226 26.274823 C 25.608821 26.177092 25.669352 26.086926 25.736818 26.003697 C 25.804915 25.920467 25.878687 25.846695 25.958133 25.781121 C 26.03821 25.716176 26.12207 25.66132 26.210974 25.615923 C 26.299248 25.571155 26.390675 25.537107 26.485254 25.514408 C 26.579202 25.491709 26.673781 25.479729 26.770252 25.479729 C 26.866092 25.479729 26.960671 25.491709 27.05525 25.514408 C 27.149199 25.537107 27.240625 25.571155 27.328899 25.615923 C 27.417804 25.66132 27.501664 25.716176 27.581741 25.781121 C 27.661187 25.846695 27.734959 25.920467 27.803056 26.003697 C 27.871153 26.086926 27.931683 26.177092 27.984648 26.274823 C 28.038242 26.372555 28.08301 26.475331 28.11958 26.583782 C 28.156782 26.692232 28.184525 26.803836 28.20281 26.919222 C 28.221726 27.034609 28.231184 27.150626 28.231184 27.267904 Z M 28.231184 27.267904 " stroke="#ffffff" stroke-width="1" stroke-opacity="1" stroke-miterlimit="4"/></svg>