<svg xmlns="http://www.w3.org/2000/svg" xmlns:xlink="http://www.w3.org/1999/xlink" width="522" zoomAndPan="magnify" viewBox="0 0 391.5 391.500002" height="522" preserveAspectRatio="xMidYMid meet" version="1.0"><defs><clipPath id="f2609e899b"><path d="M 174.773438 0 L 376 0 L 376 391 L 174.773438 391 Z M 174.773438 0 " clip-rule="nonzero"/></clipPath><clipPath id="29319396de"><path d="M 311 159 L 379.261719 159 L 379.261719 241 L 311 241 Z M 311 159 " clip-rule="nonzero"/></clipPath><clipPath id="951c14d605"><path d="M 174.773438 0 L 379.261719 0 L 379.261719 391 L 174.773438 391 Z M 174.773438 0 " clip-rule="nonzero"/></clipPath><clipPath id="b29e5bb291"><path d="M 277 10 L 379.261719 10 L 379.261719 391 L 277 391 Z M 277 10 " clip-rule="nonzero"/></clipPath><clipPath id="cd20cb864f"><path d="M 186 330 L 376 330 L 376 391 L 186 391 Z M 186 330 " clip-rule="nonzero"/></clipPath><clipPath id="a0107b3907"><path d="M 1 199 L 190 199 L 190 342 L 1 342 Z M 1 199 " clip-rule="nonzero"/></clipPath><clipPath id="40d77aacac"><path d="M 39.097656 135.550781 L 231.140625 194.019531 L 180.960938 358.828125 L -11.078125 300.363281 Z M 39.097656 135.550781 " clip-rule="nonzero"/></clipPath><clipPath id="5d0e72fecd"><path d="M 39.257812 134.890625 L 232.015625 193.574219 L 181.402344 359.820312 L -11.355469 301.132812 Z M 39.257812 134.890625 " clip-rule="nonzero"/></clipPath><clipPath id="6e10236926"><path d="M 11.707031 68.589844 L 291.167969 153.671875 L 206.085938 433.136719 L -73.375 348.050781 Z M 11.707031 68.589844 " clip-rule="nonzero"/></clipPath><clipPath id="a2a389d70f"><path d="M 50 231 L 78 231 L 78 249 L 50 249 Z M 50 231 " clip-rule="nonzero"/></clipPath><clipPath id="4065805b64"><path d="M 39.097656 135.550781 L 231.140625 194.019531 L 180.960938 358.828125 L -11.078125 300.363281 Z M 39.097656 135.550781 " clip-rule="nonzero"/></clipPath><clipPath id="8c1435ac31"><path d="M 39.257812 134.890625 L 232.015625 193.574219 L 181.402344 359.820312 L -11.355469 301.132812 Z M 39.257812 134.890625 " clip-rule="nonzero"/></clipPath><clipPath id="0db7dcc9d5"><path d="M 11.707031 68.589844 L 291.167969 153.671875 L 206.085938 433.136719 L -73.375 348.050781 Z M 11.707031 68.589844 " clip-rule="nonzero"/></clipPath><clipPath id="ddcfa16ff0"><path d="M 54 226 L 73 226 L 73 255 L 54 255 Z M 54 226 " clip-rule="nonzero"/></clipPath><clipPath id="2ffbaf979d"><path d="M 39.097656 135.550781 L 231.140625 194.019531 L 180.960938 358.828125 L -11.078125 300.363281 Z M 39.097656 135.550781 " clip-rule="nonzero"/></clipPath><clipPath id="2f4921bd7f"><path d="M 39.257812 134.890625 L 232.015625 193.574219 L 181.402344 359.820312 L -11.355469 301.132812 Z M 39.257812 134.890625 " clip-rule="nonzero"/></clipPath><clipPath id="1ecbd21447"><path d="M 11.707031 68.589844 L 291.167969 153.671875 L 206.085938 433.136719 L -73.375 348.050781 Z M 11.707031 68.589844 " clip-rule="nonzero"/></clipPath><clipPath id="2a9dc936dc"><path d="M 149 247 L 163 247 L 163 261 L 149 261 Z M 149 247 " clip-rule="nonzero"/></clipPath><clipPath id="04b2e2e09f"><path d="M 39.097656 135.550781 L 231.140625 194.019531 L 180.960938 358.828125 L -11.078125 300.363281 Z M 39.097656 135.550781 " clip-rule="nonzero"/></clipPath><clipPath id="60881b437d"><path d="M 39.257812 134.890625 L 232.015625 193.574219 L 181.402344 359.820312 L -11.355469 301.132812 Z M 39.257812 134.890625 " clip-rule="nonzero"/></clipPath><clipPath id="4e75dd89a3"><path d="M 11.707031 68.589844 L 291.167969 153.671875 L 206.085938 433.136719 L -73.375 348.050781 Z M 11.707031 68.589844 " clip-rule="nonzero"/></clipPath><clipPath id="175cbca50e"><path d="M 135 254 L 149 254 L 149 269 L 135 269 Z M 135 254 " clip-rule="nonzero"/></clipPath><clipPath id="604ff0c68b"><path d="M 39.097656 135.550781 L 231.140625 194.019531 L 180.960938 358.828125 L -11.078125 300.363281 Z M 39.097656 135.550781 " clip-rule="nonzero"/></clipPath><clipPath id="e5a4c21db3"><path d="M 39.257812 134.890625 L 232.015625 193.574219 L 181.402344 359.820312 L -11.355469 301.132812 Z M 39.257812 134.890625 " clip-rule="nonzero"/></clipPath><clipPath id="58b34b22a8"><path d="M 11.707031 68.589844 L 291.167969 153.671875 L 206.085938 433.136719 L -73.375 348.050781 Z M 11.707031 68.589844 " clip-rule="nonzero"/></clipPath><clipPath id="6284ca3ff3"><path d="M 142 269 L 156 269 L 156 285 L 142 285 Z M 142 269 " clip-rule="nonzero"/></clipPath><clipPath id="14f831f032"><path d="M 39.097656 135.550781 L 231.140625 194.019531 L 180.960938 358.828125 L -11.078125 300.363281 Z M 39.097656 135.550781 " clip-rule="nonzero"/></clipPath><clipPath id="4620a0dd51"><path d="M 39.257812 134.890625 L 232.015625 193.574219 L 181.402344 359.820312 L -11.355469 301.132812 Z M 39.257812 134.890625 " clip-rule="nonzero"/></clipPath><clipPath id="2d0e40535b"><path d="M 11.707031 68.589844 L 291.167969 153.671875 L 206.085938 433.136719 L -73.375 348.050781 Z M 11.707031 68.589844 " clip-rule="nonzero"/></clipPath><clipPath id="97405457a4"><path d="M 157 263 L 173 263 L 173 277 L 157 277 Z M 157 263 " clip-rule="nonzero"/></clipPath><clipPath id="a6bd411235"><path d="M 39.097656 135.550781 L 231.140625 194.019531 L 180.960938 358.828125 L -11.078125 300.363281 Z M 39.097656 135.550781 " clip-rule="nonzero"/></clipPath><clipPath id="a34dc73220"><path d="M 39.257812 134.890625 L 232.015625 193.574219 L 181.402344 359.820312 L -11.355469 301.132812 Z M 39.257812 134.890625 " clip-rule="nonzero"/></clipPath><clipPath id="38bd83316d"><path d="M 11.707031 68.589844 L 291.167969 153.671875 L 206.085938 433.136719 L -73.375 348.050781 Z M 11.707031 68.589844 " clip-rule="nonzero"/></clipPath><clipPath id="bd161f918b"><path d="M 110 178 L 138 178 L 138 236 L 110 236 Z M 110 178 " clip-rule="nonzero"/></clipPath><clipPath id="183cca3410"><path d="M 39.097656 135.550781 L 231.140625 194.019531 L 180.960938 358.828125 L -11.078125 300.363281 Z M 39.097656 135.550781 " clip-rule="nonzero"/></clipPath><clipPath id="a2beabd6eb"><path d="M 39.257812 134.890625 L 232.015625 193.574219 L 181.402344 359.820312 L -11.355469 301.132812 Z M 39.257812 134.890625 " clip-rule="nonzero"/></clipPath><clipPath id="d3fcef18d9"><path d="M 11.707031 68.589844 L 291.167969 153.671875 L 206.085938 433.136719 L -73.375 348.050781 Z M 11.707031 68.589844 " clip-rule="nonzero"/></clipPath></defs><path fill="#ffffff" d="M 306.613281 29.339844 C 306.464844 28.398438 305.492188 27.800781 304.507812 28.164062 L 186.558594 72.167969 C 185.933594 72.402344 185.523438 73.003906 185.53125 73.667969 C 185.675781 85.832031 185.855469 98.027344 186.039062 110.679688 C 186.570312 146.960938 187.152344 187.050781 187.152344 241.179688 C 187.152344 262.019531 187.003906 279.496094 186.867188 294.980469 C 186.648438 320.113281 186.476562 339.984375 187.074219 360.4375 C 187.097656 361.21875 187.648438 361.820312 188.363281 361.917969 C 223.003906 366.621094 300.6875 365.941406 339.011719 364.914062 C 339.890625 364.890625 340.558594 364.175781 340.527344 363.308594 C 336.402344 244.9375 316.625 94.179688 306.613281 29.339844 Z M 303.402344 25.199219 C 306.175781 24.164062 309.273438 25.835938 309.742188 28.855469 C 319.757812 93.742188 339.5625 244.640625 343.691406 363.199219 C 343.785156 365.828125 341.726562 368.007812 339.097656 368.078125 C 300.835938 369.105469 222.882812 369.800781 187.9375 365.054688 C 185.628906 364.742188 183.972656 362.800781 183.910156 360.53125 C 183.3125 340.023438 183.484375 320.054688 183.703125 294.863281 C 183.835938 279.386719 183.988281 261.9375 183.988281 241.179688 C 183.988281 187.078125 183.402344 147.019531 182.875 110.742188 C 182.6875 98.082031 182.511719 85.882812 182.367188 73.707031 C 182.34375 71.703125 183.578125 69.902344 185.453125 69.203125 Z M 303.402344 25.199219 " fill-opacity="1" fill-rule="evenodd"/><g clip-path="url(#f2609e899b)"><path stroke-linecap="butt" transform="matrix(3.165878, 0, 0, 3.165878, 74.699743, 0.0000109872)" fill="none" stroke-linejoin="miter" d="M 73.254087 9.267517 C 73.207201 8.970157 72.89997 8.781376 72.589037 8.896125 L 35.332642 22.795555 C 35.135224 22.869587 35.005669 23.059601 35.008137 23.269357 C 35.05379 27.111597 35.110547 30.963707 35.168539 34.960179 C 35.336344 46.420268 35.520189 59.08337 35.520189 76.180965 C 35.520189 82.763607 35.473302 88.283895 35.430117 93.174915 C 35.361021 101.113569 35.306731 107.390213 35.495512 113.850703 C 35.502915 114.097475 35.676889 114.287489 35.902685 114.318336 C 46.844553 115.803903 71.382322 115.589211 83.48772 115.264706 C 83.765339 115.257303 83.976329 115.031507 83.966458 114.75759 C 82.663502 77.367938 76.41647 29.748355 73.254087 9.267517 Z M 72.239855 7.959626 C 73.115895 7.632653 74.094346 8.160745 74.242409 9.114518 C 77.406025 29.610163 83.661694 77.274165 84.965884 114.723042 C 84.995497 115.553429 84.345253 116.241923 83.514865 116.264132 C 71.429209 116.588638 46.806304 116.808265 35.768195 115.309125 C 35.038983 115.210416 34.515827 114.597188 34.496085 113.880315 C 34.307305 107.402552 34.361594 101.095061 34.430691 93.137899 C 34.472642 88.249347 34.520762 82.737695 34.520762 76.180965 C 34.520762 59.092007 34.335683 46.438776 34.169112 34.97992 C 34.109887 30.980981 34.054363 27.127637 34.008711 23.281696 C 34.001307 22.648726 34.391207 22.079917 34.98346 21.859056 Z M 72.239855 7.959626 " stroke="#ffffff" stroke-width="1.792" stroke-opacity="1" stroke-miterlimit="4"/></g><path fill="#ffffff" d="M 345.632812 192.054688 C 346.507812 192.054688 347.214844 192.761719 347.214844 193.636719 L 347.214844 206.835938 C 347.214844 207.710938 346.507812 208.421875 345.632812 208.421875 C 344.757812 208.421875 344.050781 207.710938 344.050781 206.835938 L 344.050781 193.636719 C 344.050781 192.761719 344.757812 192.054688 345.632812 192.054688 Z M 345.632812 192.054688 " fill-opacity="1" fill-rule="evenodd"/><g clip-path="url(#29319396de)"><path stroke-linecap="butt" transform="matrix(3.165878, 0, 0, 3.165878, 74.699743, 0.0000109872)" fill="none" stroke-linejoin="miter" d="M 85.579112 60.663945 C 85.855497 60.663945 86.078826 60.887273 86.078826 61.163658 L 86.078826 65.33287 C 86.078826 65.609255 85.855497 65.833817 85.579112 65.833817 C 85.302728 65.833817 85.079399 65.609255 85.079399 65.33287 L 85.079399 61.163658 C 85.079399 60.887273 85.302728 60.663945 85.579112 60.663945 Z M 85.579112 60.663945 " stroke="#ffffff" stroke-width="1.792" stroke-opacity="1" stroke-miterlimit="4"/></g><path fill="#ffffff" d="M 372.164062 36.117188 C 372.328125 37.394531 372.3125 38.796875 372.246094 40.203125 C 365.492188 184.792969 369.476562 315.265625 372.289062 363.984375 C 372.339844 364.859375 371.675781 365.605469 370.800781 365.65625 C 370.582031 365.667969 370.359375 365.679688 370.136719 365.695312 C 363.558594 366.082031 356.132812 366.523438 343.6875 365.65625 C 342.816406 365.59375 342.160156 364.839844 342.21875 363.964844 C 342.28125 363.09375 343.039062 362.4375 343.910156 362.496094 C 355.585938 363.3125 362.734375 362.957031 369.039062 362.589844 C 366.230469 312.585938 362.398438 183.238281 369.082031 40.054688 C 369.144531 38.691406 369.152344 37.515625 369.023438 36.523438 C 368.894531 35.53125 368.648438 34.851562 368.308594 34.390625 C 367.730469 33.613281 366.378906 32.839844 362.472656 33.472656 C 360.917969 33.726562 355.050781 35.183594 346.015625 37.527344 C 337.035156 39.859375 325.035156 43.039062 311.3125 46.691406 C 310.464844 46.917969 309.597656 46.414062 309.375 45.570312 C 309.148438 44.726562 309.652344 43.859375 310.496094 43.632812 C 324.21875 39.980469 336.230469 36.796875 345.222656 34.464844 C 354.15625 32.144531 360.226562 30.632812 361.96875 30.347656 C 366.167969 29.667969 369.167969 30.230469 370.851562 32.503906 C 371.636719 33.570312 372 34.84375 372.164062 36.117188 Z M 191.84375 365.527344 C 191.917969 364.652344 192.683594 364.007812 193.554688 364.082031 C 202.636719 364.855469 212.203125 365.480469 221.992188 365.980469 C 222.867188 366.027344 223.539062 366.769531 223.492188 367.644531 C 223.449219 368.519531 222.707031 369.1875 221.832031 369.144531 C 212.011719 368.640625 202.410156 368.011719 193.285156 367.234375 C 192.414062 367.164062 191.769531 366.398438 191.84375 365.527344 Z M 191.84375 365.527344 " fill-opacity="1" fill-rule="evenodd"/><g clip-path="url(#951c14d605)"><path stroke-linecap="butt" transform="matrix(3.165878, 0, 0, 3.165878, 74.699743, 0.0000109872)" fill="none" stroke-linejoin="miter" d="M 93.959488 11.408264 C 94.01131 11.811736 94.006374 12.254692 93.985399 12.698881 C 91.852055 58.370199 93.110592 99.582349 93.998971 114.971047 C 94.015011 115.247432 93.805255 115.483099 93.528871 115.499139 C 93.459775 115.502841 93.389445 115.506543 93.319115 115.511478 C 91.241295 115.63363 88.895727 115.773056 84.96465 115.499139 C 84.6895 115.479398 84.482211 115.241263 84.500719 114.964878 C 84.520461 114.689727 84.75983 114.482439 85.03498 114.500947 C 88.722987 114.758824 90.98095 114.646542 92.9724 114.53056 C 92.085255 98.735921 90.874838 57.879123 92.985972 12.651994 C 93.005714 12.221377 93.008182 11.849986 92.967465 11.536585 C 92.926747 11.223185 92.849014 11.008493 92.741668 10.862898 C 92.559057 10.61736 92.132141 10.373055 90.898282 10.572941 C 90.407206 10.653142 88.553948 11.113371 85.700031 11.853687 C 82.863387 12.590301 79.07297 13.594663 74.738421 14.748322 C 74.470673 14.819886 74.196756 14.660718 74.126426 14.394204 C 74.054862 14.127691 74.21403 13.853774 74.480544 13.78221 C 78.815093 12.628551 82.609212 11.622955 85.449557 10.886341 C 88.271394 10.153428 90.188812 9.675925 90.739114 9.585853 C 92.065513 9.371161 93.013117 9.548837 93.544911 10.266943 C 93.792917 10.603787 93.907666 11.006025 93.959488 11.408264 Z M 37.002054 115.458422 C 37.025498 115.182037 37.267334 114.978451 37.542485 115.001894 C 40.411209 115.246198 43.432931 115.443616 46.524984 115.60155 C 46.801368 115.616356 47.013592 115.850789 46.998786 116.127174 C 46.985213 116.403559 46.75078 116.614549 46.474396 116.600976 C 43.372472 116.441808 40.339645 116.243157 37.457349 115.997619 C 37.182198 115.975409 36.978611 115.733573 37.002054 115.458422 Z M 37.002054 115.458422 " stroke="#ffffff" stroke-width="1.792" stroke-opacity="1" stroke-miterlimit="4"/></g><path fill="#ffffff" d="M 349.898438 50.902344 C 346.480469 46.707031 342.5 45.710938 340.058594 45.933594 C 340.035156 45.9375 340.011719 45.9375 339.988281 45.9375 L 312.660156 47.253906 C 312.804688 48.128906 313 49.347656 313.246094 50.941406 C 313.835938 54.722656 314.726562 60.613281 315.917969 69.070312 C 318.304688 85.988281 321.914062 113.171875 326.808594 154.253906 C 336.875 238.761719 342.578125 324.050781 343.761719 362.015625 C 349.46875 362.882812 357.5 362.398438 362.761719 361.917969 C 362.359375 345.085938 361.78125 321.726562 361.125 295.480469 C 359.058594 212.378906 356.269531 100.394531 356.269531 75.578125 C 356.269531 62.648438 353.328125 55.113281 349.898438 50.902344 Z M 309.328125 46.015625 C 309.246094 46.03125 309.246094 46.03125 309.246094 46.03125 L 309.25 46.046875 L 309.257812 46.105469 L 309.300781 46.339844 C 309.335938 46.550781 309.390625 46.875 309.460938 47.316406 C 309.605469 48.195312 309.824219 49.550781 310.121094 51.429688 C 310.707031 55.191406 311.59375 61.070312 312.785156 69.511719 C 315.167969 86.402344 318.773438 113.5625 323.664062 154.628906 C 333.835938 240.027344 339.546875 326.207031 340.632812 363.394531 C 340.65625 364.132812 341.183594 364.757812 341.902344 364.902344 C 348.699219 366.269531 359.132812 365.46875 364.535156 364.925781 C 365.359375 364.84375 365.980469 364.140625 365.960938 363.3125 C 365.558594 346.363281 364.960938 322.367188 364.289062 295.324219 C 362.222656 212.230469 359.4375 100.351562 359.4375 75.578125 C 359.4375 62.214844 356.398438 53.867188 352.355469 48.902344 C 348.3125 43.941406 343.339844 42.46875 339.804688 42.777344 L 310.730469 44.175781 C 310.273438 44.195312 309.851562 44.414062 309.570312 44.769531 C 309.285156 45.121094 309.167969 45.582031 309.246094 46.03125 Z M 309.328125 46.015625 " fill-opacity="1" fill-rule="evenodd"/><g clip-path="url(#b29e5bb291)"><path stroke-linecap="butt" transform="matrix(3.165878, 0, 0, 3.165878, 74.699743, 0.0000109872)" fill="none" stroke-linejoin="miter" d="M 86.926487 16.078423 C 85.84686 14.753257 84.589557 14.438623 83.818395 14.508953 C 83.810991 14.510187 83.803588 14.510187 83.796185 14.510187 L 75.164102 14.925998 C 75.209755 15.202382 75.271448 15.587347 75.349181 16.090761 C 75.535494 17.285138 75.816814 19.145798 76.193141 21.817105 C 76.94703 27.160951 78.087116 35.747381 79.633142 48.723884 C 82.812799 75.417206 84.614234 102.357299 84.988094 114.349182 C 86.790763 114.623099 89.327578 114.4701 90.989587 114.318336 C 90.8625 109.001634 90.679889 101.623153 90.4726 93.332849 C 89.819888 67.083717 88.938912 31.711426 88.938912 23.872715 C 88.938912 19.788639 88.009816 17.408524 86.926487 16.078423 Z M 74.11162 14.534864 C 74.085709 14.5398 74.085709 14.5398 74.085709 14.5398 L 74.086943 14.544735 L 74.08941 14.563243 L 74.102983 14.637275 C 74.114088 14.703903 74.131362 14.806313 74.153571 14.94574 C 74.199224 15.223358 74.26832 15.651507 74.362093 16.244994 C 74.547172 17.433201 74.827259 19.29016 75.203586 21.956531 C 75.95624 27.29174 77.095093 35.870767 78.639885 48.842334 C 81.852856 75.816976 83.656759 103.03839 83.999772 114.784735 C 84.007175 115.017934 84.173746 115.215352 84.400776 115.261004 C 86.547692 115.692855 89.843332 115.439914 91.54976 115.268408 C 91.810104 115.242497 92.006288 115.020402 92.000118 114.758824 C 91.873031 109.405106 91.68425 101.825506 91.472027 93.283495 C 90.819315 67.03683 89.939573 31.697853 89.939573 23.872715 C 89.939573 19.651681 88.97963 17.014922 87.702585 15.446687 C 86.42554 13.879685 84.854837 13.41452 83.738194 13.511995 L 74.554576 13.953716 C 74.410214 13.959886 74.276957 14.028982 74.188119 14.141263 C 74.098047 14.25231 74.061032 14.397906 74.085709 14.5398 Z M 74.11162 14.534864 " stroke="#ffffff" stroke-width="1.792" stroke-opacity="1" stroke-miterlimit="4"/></g><path fill="#ffffff" d="M 221.972656 363.425781 C 222.117188 362.683594 222.765625 362.148438 223.523438 362.148438 C 247.304688 362.148438 268.390625 363.324219 287.425781 364.496094 C 289.390625 364.617188 291.332031 364.738281 293.253906 364.859375 C 309.964844 365.898438 325.046875 366.839844 339.050781 366.839844 C 339.761719 366.839844 340.386719 367.316406 340.578125 368 L 343.742188 379.484375 C 343.875 379.960938 343.773438 380.472656 343.476562 380.863281 C 343.175781 381.257812 342.710938 381.488281 342.214844 381.488281 L 220.359375 381.488281 C 219.886719 381.488281 219.4375 381.277344 219.136719 380.914062 C 218.835938 380.546875 218.714844 380.066406 218.804688 379.601562 Z M 224.828125 365.3125 L 222.28125 378.324219 L 340.136719 378.324219 L 337.84375 370.003906 C 324.078125 369.953125 309.28125 369.027344 293.066406 368.015625 C 291.140625 367.898438 289.195312 367.777344 287.230469 367.65625 C 268.554688 366.503906 247.972656 365.359375 224.828125 365.3125 Z M 224.828125 365.3125 " fill-opacity="1" fill-rule="evenodd"/><g clip-path="url(#cd20cb864f)"><path stroke-linecap="butt" transform="matrix(3.165878, 0, 0, 3.165878, 74.699743, 0.0000109872)" fill="none" stroke-linejoin="miter" d="M 46.518814 114.794605 C 46.564467 114.560172 46.769288 114.391133 47.008657 114.391133 C 54.520395 114.391133 61.18077 114.762525 67.193368 115.132683 C 67.814 115.170933 68.427228 115.209182 69.034287 115.247432 C 74.312739 115.575639 79.076672 115.872999 83.500059 115.872999 C 83.724621 115.872999 83.922039 116.02353 83.982498 116.239455 L 84.981924 119.867003 C 85.023876 120.017534 84.991795 120.179169 84.898022 120.302555 C 84.803015 120.427175 84.656185 120.499973 84.499485 120.499973 L 46.00923 120.499973 C 45.859933 120.499973 45.71804 120.433345 45.623032 120.318596 C 45.528025 120.202613 45.489775 120.050848 45.518154 119.904019 Z M 47.420766 115.39056 L 46.616289 119.500547 L 83.843072 119.500547 L 83.118796 116.872425 C 78.770674 116.856385 74.096814 116.56396 68.975062 116.244391 C 68.366769 116.207375 67.752307 116.169125 67.131675 116.130876 C 61.232592 115.766887 54.731385 115.405366 47.420766 115.39056 Z M 47.420766 115.39056 " stroke="#ffffff" stroke-width="1.792" stroke-opacity="1" stroke-miterlimit="4"/></g><g clip-path="url(#a0107b3907)"><g clip-path="url(#40d77aacac)"><g clip-path="url(#5d0e72fecd)"><g clip-path="url(#6e10236926)"><path stroke-linecap="round" transform="matrix(0.698655, 0.212707, -0.212707, 0.698655, 11.706168, 68.590113)" fill="none" stroke-linejoin="round" d="M 164.08605 175.353395 C 118.98691 95.885896 72.911345 264.602585 80.912762 286.090847 C 95.562592 325.431342 161.590334 236.46353 164.726808 234.094077 C 171.077395 229.297988 187.261703 229.47532 195.002356 227.353491 C 233.007505 216.91216 270.680987 307.524668 308.774962 288.339771 C 337.273976 273.982642 303.719055 165.421213 273.077916 155.130798 C 250.858012 147.671933 245.189716 173.036818 231.968651 175.999685 C 219.227681 178.849933 197.770045 174.390649 184.166484 174.389273 " stroke="#ffffff" stroke-width="16.4" stroke-opacity="0.9" stroke-miterlimit="4"/></g></g></g></g><g clip-path="url(#a2a389d70f)"><g clip-path="url(#4065805b64)"><g clip-path="url(#8c1435ac31)"><g clip-path="url(#0db7dcc9d5)"><path stroke-linecap="round" transform="matrix(0.698655, 0.212707, -0.212707, 0.698655, 11.706168, 68.590113)" fill="none" stroke-linejoin="round" d="M 148.284265 204.144494 C 141.357225 201.758201 129.604614 203.502423 126.291756 203.951919 " stroke="#ffffff" stroke-width="16.4" stroke-opacity="0.9" stroke-miterlimit="4"/></g></g></g></g><g clip-path="url(#ddcfa16ff0)"><g clip-path="url(#2ffbaf979d)"><g clip-path="url(#2f4921bd7f)"><g clip-path="url(#1ecbd21447)"><path stroke-linecap="round" transform="matrix(0.698655, 0.212707, -0.212707, 0.698655, 11.706168, 68.590113)" fill="none" stroke-linejoin="round" d="M 137.287971 193.112031 C 136.46576 200.787333 136.127226 208.600524 136.127732 216.260174 " stroke="#ffffff" stroke-width="16.4" stroke-opacity="0.9" stroke-miterlimit="4"/></g></g></g></g><g clip-path="url(#2a9dc936dc)"><g clip-path="url(#04b2e2e09f)"><g clip-path="url(#60881b437d)"><g clip-path="url(#4e75dd89a3)"><path stroke-linecap="round" transform="matrix(0.698655, 0.212707, -0.212707, 0.698655, 11.706168, 68.590113)" fill="none" stroke-linejoin="round" d="M 263.317075 186.611511 C 263.125678 185.909393 263.517395 185.231024 263.607435 184.571817 " stroke="#ffffff" stroke-width="16.4" stroke-opacity="0.9" stroke-miterlimit="4"/></g></g></g></g><g clip-path="url(#175cbca50e)"><g clip-path="url(#604ff0c68b)"><g clip-path="url(#e5a4c21db3)"><g clip-path="url(#58b34b22a8)"><path stroke-linecap="round" transform="matrix(0.698655, 0.212707, -0.212707, 0.698655, 11.706168, 68.590113)" fill="none" stroke-linejoin="round" d="M 248.976048 201.119913 C 248.159347 201.228782 247.424656 200.468426 246.644622 200.146799 " stroke="#ffffff" stroke-width="16.4" stroke-opacity="0.9" stroke-miterlimit="4"/></g></g></g></g><g clip-path="url(#6284ca3ff3)"><g clip-path="url(#14f831f032)"><g clip-path="url(#4620a0dd51)"><g clip-path="url(#2d0e40535b)"><path stroke-linecap="round" transform="matrix(0.698655, 0.212707, -0.212707, 0.698655, 11.706168, 68.590113)" fill="none" stroke-linejoin="round" d="M 263.610672 216.261174 C 262.992103 217.718678 263.41274 219.357401 263.314996 220.891165 " stroke="#ffffff" stroke-width="16.4" stroke-opacity="0.9" stroke-miterlimit="4"/></g></g></g></g><g clip-path="url(#97405457a4)"><g clip-path="url(#a6bd411235)"><g clip-path="url(#a34dc73220)"><g clip-path="url(#38bd83316d)"><path stroke-linecap="round" transform="matrix(0.698655, 0.212707, -0.212707, 0.698655, 11.706168, 68.590113)" fill="none" stroke-linejoin="round" d="M 278.906627 202.373392 C 281.720661 201.589339 282.258553 203.337732 283.530806 202.374509 " stroke="#ffffff" stroke-width="16.4" stroke-opacity="0.9" stroke-miterlimit="4"/></g></g></g></g><g clip-path="url(#bd161f918b)"><g clip-path="url(#183cca3410)"><g clip-path="url(#a2beabd6eb)"><g clip-path="url(#d3fcef18d9)"><path stroke-linecap="round" transform="matrix(0.698655, 0.212707, -0.212707, 0.698655, 11.706168, 68.590113)" fill="none" stroke-linejoin="round" d="M 202.780802 168.81157 C 204.138381 164.400618 204.755338 160.036234 204.98694 155.397795 C 205.274489 149.529055 194.056266 125.536901 192.366361 137.524328 C 190.662447 149.594296 210.505234 131.817411 202.779754 103.999882 " stroke="#ffffff" stroke-width="16.4" stroke-opacity="0.9" stroke-miterlimit="4"/></g></g></g></g></svg>